<mxfile host="app.diagrams.net" modified="2022-08-22T12:49:58.604Z" agent="5.0 (Macintosh; Intel Mac OS X 10_15_7) AppleWebKit/537.36 (KHTML, like Gecko) Chrome/104.0.0.0 Safari/537.36" etag="LCjR-SP4pXWD25SOzxLw" version="20.2.5" type="github">
  <diagram id="cft2ShaVE52WyXAF_chU" name="Page-1">
    <mxGraphModel dx="1018" dy="659" grid="1" gridSize="10" guides="1" tooltips="1" connect="1" arrows="1" fold="1" page="1" pageScale="1" pageWidth="850" pageHeight="1100" math="0" shadow="0">
      <root>
        <mxCell id="0" />
        <mxCell id="1" parent="0" />
        <mxCell id="DaodpHluIBCYAYhXnYec-1" value="&lt;font style=&quot;font-size: 18px;&quot;&gt;Verifier&lt;/font&gt;" style="rounded=1;whiteSpace=wrap;html=1;fillColor=#f5f5f5;fontColor=#333333;strokeColor=#666666;" vertex="1" parent="1">
          <mxGeometry x="90" y="230" width="190" height="500" as="geometry" />
        </mxCell>
        <mxCell id="DaodpHluIBCYAYhXnYec-4" value="&lt;font style=&quot;font-size: 18px;&quot;&gt;Prover&lt;/font&gt;" style="rounded=1;whiteSpace=wrap;html=1;fillColor=#f5f5f5;fontColor=#333333;strokeColor=#666666;" vertex="1" parent="1">
          <mxGeometry x="670" y="230" width="190" height="500" as="geometry" />
        </mxCell>
        <mxCell id="DaodpHluIBCYAYhXnYec-6" value="" style="endArrow=classic;html=1;rounded=0;fontSize=18;strokeWidth=2;exitX=1;exitY=0.094;exitDx=0;exitDy=0;exitPerimeter=0;entryX=0;entryY=0.094;entryDx=0;entryDy=0;entryPerimeter=0;" edge="1" parent="1" source="DaodpHluIBCYAYhXnYec-1" target="DaodpHluIBCYAYhXnYec-4">
          <mxGeometry width="50" height="50" relative="1" as="geometry">
            <mxPoint x="400" y="430" as="sourcePoint" />
            <mxPoint x="450" y="380" as="targetPoint" />
          </mxGeometry>
        </mxCell>
        <mxCell id="DaodpHluIBCYAYhXnYec-7" value="&lt;font style=&quot;font-size: 14px;&quot;&gt;采样一个随机值r，然后计算t=t(r)，把这个r发送给prover&lt;/font&gt;" style="text;html=1;strokeColor=none;fillColor=none;align=center;verticalAlign=middle;whiteSpace=wrap;rounded=0;fontSize=18;" vertex="1" parent="1">
          <mxGeometry x="330" y="240" width="300" height="30" as="geometry" />
        </mxCell>
        <mxCell id="DaodpHluIBCYAYhXnYec-8" value="" style="endArrow=classic;html=1;rounded=0;fontSize=14;strokeWidth=2;exitX=-0.005;exitY=0.336;exitDx=0;exitDy=0;exitPerimeter=0;" edge="1" parent="1" source="DaodpHluIBCYAYhXnYec-4">
          <mxGeometry width="50" height="50" relative="1" as="geometry">
            <mxPoint x="400" y="490" as="sourcePoint" />
            <mxPoint x="280" y="398" as="targetPoint" />
          </mxGeometry>
        </mxCell>
        <mxCell id="DaodpHluIBCYAYhXnYec-9" value="&lt;font style=&quot;font-size: 14px;&quot;&gt;prover拿到r以后计算h(x)=p(x)/t(x)&lt;br&gt;然后开点（evaluate）计算p=p(x), r=r(x)&lt;br&gt;再把p和r发送给verifier&lt;/font&gt;" style="text;html=1;strokeColor=none;fillColor=none;align=center;verticalAlign=middle;whiteSpace=wrap;rounded=0;fontSize=18;" vertex="1" parent="1">
          <mxGeometry x="330" y="330" width="300" height="70" as="geometry" />
        </mxCell>
      </root>
    </mxGraphModel>
  </diagram>
</mxfile>
